# xmcd
#
# Track frame offsets: 
#        150
#        11701
#        33711
#        44892
#        64438
#        78231
#        91969
#        108101
#        125111
#
# Disc length: 1993 seconds
#
# Revision: 0
# Processed by: cddbd v1.5.2PL0 Copyright (c) Steve Scherf et al.
# Submitted via: ExactAudioCopy v0.95b3
#
DISCID=7d07c709
DTITLE=Andre Williams and the New Orleans Hellhounds - Can You Deal with
DTITLE=It?
DYEAR=2008
DGENRE=Blues
TTITLE0=Can You Deal With It?
TTITLE1=Hear Ya Dance
TTITLE2=Never Had a Problem
TTITLE3=Pray For Your Daughter
TTITLE4=If You Leave Me
TTITLE5=Rosalie
TTITLE6=If It Wasn't for You
TTITLE7=Your Woman
TTITLE8=Can't Take 'Em Off
EXTD=
EXTT0=
EXTT1=
EXTT2=
EXTT3=
EXTT4=
EXTT5=
EXTT6=
EXTT7=
EXTT8=
PLAYORDER=
